<svg width="35" height="35" viewBox="0 0 35 35" fill="none" xmlns="http://www.w3.org/2000/svg">
<path d="M27.7083 5.83331H7.29166C6.13134 5.83331 5.01854 6.29425 4.19807 7.11472C3.3776 7.93519 2.91666 9.04799 2.91666 10.2083V24.7916C2.91666 25.952 3.3776 27.0648 4.19807 27.8852C5.01854 28.7057 6.13134 29.1666 7.29166 29.1666H27.7083C28.8687 29.1666 29.9815 28.7057 30.8019 27.8852C31.6224 27.0648 32.0833 25.952 32.0833 24.7916V10.2083C32.0833 9.04799 31.6224 7.93519 30.8019 7.11472C29.9815 6.29425 28.8687 5.83331 27.7083 5.83331V5.83331ZM7.29166 8.74998H27.7083C28.0951 8.74998 28.466 8.90363 28.7395 9.17712C29.013 9.45061 29.1667 9.82154 29.1667 10.2083L17.5 17.325L5.83333 10.2083C5.83333 9.82154 5.98698 9.45061 6.26047 9.17712C6.53396 8.90363 6.90489 8.74998 7.29166 8.74998V8.74998ZM29.1667 24.7916C29.1667 25.1784 29.013 25.5494 28.7395 25.8228C28.466 26.0963 28.0951 26.25 27.7083 26.25H7.29166C6.90489 26.25 6.53396 26.0963 6.26047 25.8228C5.98698 25.5494 5.83333 25.1784 5.83333 24.7916V13.5333L16.7417 20.1979C16.9634 20.3259 17.2148 20.3933 17.4708 20.3933C17.7268 20.3933 17.9783 20.3259 18.2 20.1979L29.1667 13.5333V24.7916Z" fill="#234257"/>
</svg>
