<svg width="40" height="40" viewBox="0 0 40 40" fill="none" xmlns="http://www.w3.org/2000/svg">
<path d="M35.5333 15.9166L32.3833 14.8666L33.8667 11.8999C34.017 11.5894 34.0673 11.2399 34.0106 10.8995C33.9539 10.5592 33.7929 10.2449 33.55 9.99992L30 6.44992C29.7537 6.2034 29.4364 6.04027 29.0926 5.98347C28.7488 5.92667 28.3958 5.97905 28.0833 6.13326L25.1167 7.61659L24.0667 4.46659C23.9558 4.13824 23.7453 3.85263 23.4645 3.6495C23.1837 3.44637 22.8465 3.33583 22.5 3.33326H17.5C17.1506 3.33236 16.8097 3.44129 16.5256 3.64466C16.2415 3.84803 16.0285 4.13556 15.9167 4.46659L14.8667 7.61659L11.9 6.13326C11.5895 5.98289 11.2399 5.9326 10.8996 5.98932C10.5593 6.04604 10.245 6.20697 9.99999 6.44992L6.44999 9.99992C6.20346 10.2462 6.04033 10.5635 5.98353 10.9074C5.92673 11.2512 5.97911 11.6041 6.13332 11.9166L7.61665 14.8833L4.46665 15.9333C4.13831 16.0442 3.85269 16.2546 3.64957 16.5354C3.44644 16.8162 3.33589 17.1534 3.33332 17.4999V22.4999C3.33242 22.8493 3.44135 23.1902 3.64472 23.4743C3.84809 23.7584 4.13562 23.9714 4.46665 24.0833L7.61665 25.1333L6.13332 28.0999C5.98295 28.4104 5.93266 28.76 5.98938 29.1003C6.0461 29.4406 6.20704 29.755 6.44999 29.9999L9.99999 33.5499C10.2463 33.7964 10.5636 33.9596 10.9074 34.0164C11.2512 34.0732 11.6042 34.0208 11.9167 33.8666L14.8833 32.3833L15.9333 35.5333C16.0451 35.8643 16.2581 36.1518 16.5423 36.3552C16.8264 36.5586 17.1672 36.6675 17.5167 36.6666H22.5167C22.8661 36.6675 23.2069 36.5586 23.491 36.3552C23.7752 36.1518 23.9882 35.8643 24.1 35.5333L25.15 32.3833L28.1167 33.8666C28.4252 34.0132 28.7713 34.0614 29.1082 34.0048C29.445 33.9481 29.7563 33.7893 30 33.5499L33.55 29.9999C33.7965 29.7537 33.9596 29.4363 34.0164 29.0925C34.0732 28.7487 34.0209 28.3957 33.8667 28.0833L32.3833 25.1166L35.5333 24.0666C35.8617 23.9557 36.1473 23.7452 36.3504 23.4644C36.5535 23.1836 36.6641 22.8465 36.6667 22.4999V17.4999C36.6676 17.1505 36.5586 16.8097 36.3553 16.5255C36.1519 16.2414 35.8644 16.0284 35.5333 15.9166ZM33.3333 21.2999L31.3333 21.9666C30.8734 22.1158 30.4515 22.3632 30.0967 22.6918C29.742 23.0203 29.463 23.4221 29.2791 23.8692C29.0952 24.3164 29.0107 24.7982 29.0316 25.2812C29.0525 25.7643 29.1782 26.237 29.4 26.6666L30.35 28.5666L28.5167 30.3999L26.6667 29.3999C26.2392 29.187 25.7711 29.0684 25.2938 29.0521C24.8166 29.0358 24.3414 29.1223 23.9005 29.3056C23.4596 29.4889 23.0632 29.7648 22.7382 30.1147C22.4132 30.4645 22.1671 30.8801 22.0167 31.3333L21.35 33.3333H18.7L18.0333 31.3333C17.8841 30.8734 17.6367 30.4514 17.3082 30.0967C16.9796 29.742 16.5778 29.463 16.1307 29.279C15.6835 29.0951 15.2017 29.0106 14.7187 29.0315C14.2356 29.0524 13.7629 29.1781 13.3333 29.3999L11.4333 30.3499L9.59999 28.5166L10.6 26.6666C10.8218 26.237 10.9475 25.7643 10.9684 25.2812C10.9893 24.7982 10.9048 24.3164 10.7209 23.8692C10.537 23.4221 10.2579 23.0203 9.90323 22.6918C9.54851 22.3632 9.12656 22.1158 8.66665 21.9666L6.66665 21.2999V18.6999L8.66665 18.0333C9.12656 17.8841 9.54851 17.6366 9.90323 17.3081C10.2579 16.9795 10.537 16.5778 10.7209 16.1306C10.9048 15.6835 10.9893 15.2017 10.9684 14.7186C10.9475 14.2356 10.8218 13.7629 10.6 13.3333L9.64999 11.4833L11.4833 9.64992L13.3333 10.5999C13.7629 10.8217 14.2356 10.9475 14.7187 10.9683C15.2017 10.9892 15.6835 10.9048 16.1307 10.7208C16.5778 10.5369 16.9796 10.2579 17.3082 9.90317C17.6367 9.54844 17.8841 9.1265 18.0333 8.66659L18.7 6.66659H21.3L21.9667 8.66659C22.1158 9.1265 22.3633 9.54844 22.6918 9.90317C23.0204 10.2579 23.4221 10.5369 23.8693 10.7208C24.3164 10.9048 24.7982 10.9892 25.2813 10.9683C25.7643 10.9475 26.237 10.8217 26.6667 10.5999L28.5667 9.64992L30.4 11.4833L29.4 13.3333C29.187 13.7607 29.0684 14.2288 29.0521 14.7061C29.0359 15.1833 29.1223 15.6585 29.3056 16.0994C29.489 16.5403 29.7649 16.9367 30.1147 17.2617C30.4645 17.5867 30.8801 17.8328 31.3333 17.9833L33.3333 18.6499V21.2999ZM20 13.3333C18.6814 13.3333 17.3925 13.7243 16.2962 14.4568C15.1999 15.1893 14.3454 16.2305 13.8408 17.4487C13.3362 18.6669 13.2042 20.0073 13.4614 21.3005C13.7187 22.5937 14.3536 23.7816 15.2859 24.714C16.2183 25.6463 17.4062 26.2813 18.6994 26.5385C19.9926 26.7957 21.333 26.6637 22.5512 26.1591C23.7694 25.6545 24.8106 24.8001 25.5431 23.7037C26.2757 22.6074 26.6667 21.3185 26.6667 19.9999C26.6667 18.2318 25.9643 16.5361 24.714 15.2859C23.4638 14.0356 21.7681 13.3333 20 13.3333V13.3333ZM20 23.3333C19.3407 23.3333 18.6962 23.1378 18.1481 22.7715C17.5999 22.4052 17.1727 21.8846 16.9204 21.2755C16.6681 20.6664 16.6021 19.9962 16.7307 19.3496C16.8593 18.703 17.1768 18.1091 17.643 17.6429C18.1091 17.1767 18.7031 16.8593 19.3497 16.7306C19.9963 16.602 20.6665 16.668 21.2756 16.9203C21.8847 17.1726 22.4053 17.5999 22.7716 18.148C23.1378 18.6962 23.3333 19.3407 23.3333 19.9999C23.3333 20.884 22.9821 21.7318 22.357 22.3569C21.7319 22.9821 20.884 23.3333 20 23.3333Z" fill="white"/>
</svg>
