<svg width="40" height="40" viewBox="0 0 40 40" fill="none" xmlns="http://www.w3.org/2000/svg">
<path d="M11.6667 26.6666C12.3297 26.6666 12.9656 26.4032 13.4344 25.9344C13.9033 25.4655 14.1667 24.8296 14.1667 24.1666C14.1748 24.0835 14.1748 23.9997 14.1667 23.9166L18.8167 19.2666H19.2H19.5833L22.2667 21.9499C22.2667 21.9499 22.2667 22.0333 22.2667 22.0833C22.2667 22.7463 22.5301 23.3822 22.9989 23.851C23.4677 24.3199 24.1036 24.5833 24.7667 24.5833C25.4297 24.5833 26.0656 24.3199 26.5344 23.851C27.0033 23.3822 27.2667 22.7463 27.2667 22.0833V21.9499L33.3333 15.8333C33.8278 15.8333 34.3111 15.6866 34.7223 15.4119C35.1334 15.1372 35.4538 14.7468 35.643 14.29C35.8322 13.8331 35.8818 13.3305 35.7853 12.8455C35.6888 12.3606 35.4507 11.9151 35.1011 11.5655C34.7515 11.2159 34.306 10.9778 33.8211 10.8813C33.3361 10.7848 32.8334 10.8343 32.3766 11.0236C31.9198 11.2128 31.5294 11.5332 31.2547 11.9443C30.98 12.3554 30.8333 12.8388 30.8333 13.3333C30.8252 13.4164 30.8252 13.5001 30.8333 13.5833L24.8167 19.5999H24.55L21.6667 16.6666C21.6667 16.0035 21.4033 15.3677 20.9344 14.8988C20.4656 14.43 19.8297 14.1666 19.1667 14.1666C18.5036 14.1666 17.8677 14.43 17.3989 14.8988C16.9301 15.3677 16.6667 16.0035 16.6667 16.6666L11.6667 21.6666C11.0036 21.6666 10.3677 21.93 9.8989 22.3988C9.43006 22.8677 9.16667 23.5035 9.16667 24.1666C9.16667 24.8296 9.43006 25.4655 9.8989 25.9344C10.3677 26.4032 11.0036 26.6666 11.6667 26.6666V26.6666ZM34.1667 33.3333H5.83333V4.99992C5.83333 4.55789 5.65774 4.13397 5.34518 3.82141C5.03262 3.50885 4.60869 3.33325 4.16667 3.33325C3.72464 3.33325 3.30072 3.50885 2.98816 3.82141C2.67559 4.13397 2.5 4.55789 2.5 4.99992V34.9999C2.5 35.4419 2.67559 35.8659 2.98816 36.1784C3.30072 36.491 3.72464 36.6666 4.16667 36.6666H34.1667C34.6087 36.6666 35.0326 36.491 35.3452 36.1784C35.6577 35.8659 35.8333 35.4419 35.8333 34.9999C35.8333 34.5579 35.6577 34.134 35.3452 33.8214C35.0326 33.5088 34.6087 33.3333 34.1667 33.3333Z" fill="white"/>
</svg>
