<svg width="40" height="40" viewBox="0 0 40 40" fill="none" xmlns="http://www.w3.org/2000/svg">
<path d="M28.3333 3.33337H8.33332C7.8913 3.33337 7.46737 3.50897 7.15481 3.82153C6.84225 4.13409 6.66666 4.55801 6.66666 5.00004V31.6667C6.66666 32.1087 6.84225 32.5327 7.15481 32.8452C7.46737 33.1578 7.8913 33.3334 8.33332 33.3334H9.99999V35C9.99999 35.4421 10.1756 35.866 10.4881 36.1786C10.8007 36.4911 11.2246 36.6667 11.6667 36.6667C12.1087 36.6667 12.5326 36.4911 12.8452 36.1786C13.1577 35.866 13.3333 35.4421 13.3333 35V33.3334H28.3333C29.6594 33.3334 30.9312 32.8066 31.8689 31.8689C32.8065 30.9312 33.3333 29.6595 33.3333 28.3334V8.33337C33.3333 7.00729 32.8065 5.73552 31.8689 4.79784C30.9312 3.86016 29.6594 3.33337 28.3333 3.33337ZM23.3333 30H9.99999V6.66671H23.3333V30ZM30 28.3334C30 28.7754 29.8244 29.1993 29.5118 29.5119C29.1993 29.8244 28.7753 30 28.3333 30H26.6667V6.66671H28.3333C28.7753 6.66671 29.1993 6.8423 29.5118 7.15486C29.8244 7.46742 30 7.89135 30 8.33337V28.3334Z" fill="white"/>
</svg>
