<svg width="40" height="40" viewBox="0 0 40 40" fill="none" xmlns="http://www.w3.org/2000/svg">
<path d="M6.66666 19.9999C6.66666 20.4419 6.84225 20.8659 7.15481 21.1784C7.46737 21.491 7.8913 21.6666 8.33332 21.6666H20.9833L17.15 25.4833C16.9938 25.6382 16.8698 25.8225 16.7852 26.0256C16.7006 26.2287 16.657 26.4466 16.657 26.6666C16.657 26.8866 16.7006 27.1044 16.7852 27.3075C16.8698 27.5106 16.9938 27.695 17.15 27.8499C17.3049 28.0061 17.4893 28.1301 17.6924 28.2147C17.8955 28.2994 18.1133 28.3429 18.3333 28.3429C18.5533 28.3429 18.7712 28.2994 18.9743 28.2147C19.1774 28.1301 19.3617 28.0061 19.5167 27.8499L26.1833 21.1833C26.3351 21.0247 26.454 20.8378 26.5333 20.6333C26.7 20.2275 26.7 19.7724 26.5333 19.3666C26.454 19.162 26.3351 18.9751 26.1833 18.8166L19.5167 12.1499C19.3613 11.9945 19.1768 11.8713 18.9737 11.7872C18.7707 11.7031 18.5531 11.6598 18.3333 11.6598C18.1136 11.6598 17.8959 11.7031 17.6929 11.7872C17.4899 11.8713 17.3054 11.9945 17.15 12.1499C16.9946 12.3053 16.8713 12.4898 16.7872 12.6928C16.7031 12.8959 16.6598 13.1135 16.6598 13.3333C16.6598 13.553 16.7031 13.7706 16.7872 13.9737C16.8713 14.1767 16.9946 14.3612 17.15 14.5166L20.9833 18.3333H8.33332C7.8913 18.3333 7.46737 18.5088 7.15481 18.8214C6.84225 19.134 6.66666 19.5579 6.66666 19.9999V19.9999ZM28.3333 3.33325H11.6667C10.3406 3.33325 9.0688 3.86004 8.13112 4.79772C7.19344 5.7354 6.66666 7.00717 6.66666 8.33325V13.3333C6.66666 13.7753 6.84225 14.1992 7.15481 14.5118C7.46737 14.8243 7.8913 14.9999 8.33332 14.9999C8.77535 14.9999 9.19927 14.8243 9.51183 14.5118C9.82439 14.1992 9.99999 13.7753 9.99999 13.3333V8.33325C9.99999 7.89122 10.1756 7.4673 10.4881 7.15474C10.8007 6.84218 11.2246 6.66659 11.6667 6.66659H28.3333C28.7753 6.66659 29.1993 6.84218 29.5118 7.15474C29.8244 7.4673 30 7.89122 30 8.33325V31.6666C30 32.1086 29.8244 32.5325 29.5118 32.8451C29.1993 33.1577 28.7753 33.3333 28.3333 33.3333H11.6667C11.2246 33.3333 10.8007 33.1577 10.4881 32.8451C10.1756 32.5325 9.99999 32.1086 9.99999 31.6666V26.6666C9.99999 26.2246 9.82439 25.8006 9.51183 25.4881C9.19927 25.1755 8.77535 24.9999 8.33332 24.9999C7.8913 24.9999 7.46737 25.1755 7.15481 25.4881C6.84225 25.8006 6.66666 26.2246 6.66666 26.6666V31.6666C6.66666 32.9927 7.19344 34.2644 8.13112 35.2021C9.0688 36.1398 10.3406 36.6666 11.6667 36.6666H28.3333C29.6594 36.6666 30.9312 36.1398 31.8689 35.2021C32.8065 34.2644 33.3333 32.9927 33.3333 31.6666V8.33325C33.3333 7.00717 32.8065 5.7354 31.8689 4.79772C30.9312 3.86004 29.6594 3.33325 28.3333 3.33325Z" fill="white"/>
</svg>
