<svg width="40" height="40" viewBox="0 0 40 40" fill="none" xmlns="http://www.w3.org/2000/svg">
<path d="M35.5333 15.9167L32.3833 14.8667L33.8667 11.9C34.017 11.5895 34.0673 11.24 34.0106 10.8997C33.9539 10.5593 33.7929 10.245 33.55 10L30 6.45005C29.7537 6.20352 29.4364 6.04039 29.0926 5.98359C28.7488 5.92679 28.3958 5.97917 28.0833 6.13338L25.1167 7.61671L24.0667 4.46671C23.9558 4.13837 23.7453 3.85276 23.4645 3.64963C23.1837 3.4465 22.8465 3.33595 22.5 3.33338H17.5C17.1506 3.33248 16.8097 3.44141 16.5256 3.64478C16.2415 3.84815 16.0285 4.13568 15.9167 4.46671L14.8667 7.61671L11.9 6.13338C11.5895 5.98301 11.2399 5.93272 10.8996 5.98944C10.5593 6.04616 10.245 6.2071 9.99999 6.45005L6.44999 10C6.20346 10.2463 6.04033 10.5637 5.98353 10.9075C5.92673 11.2513 5.97911 11.6042 6.13332 11.9167L7.61665 14.8834L4.46665 15.9334C4.13831 16.0443 3.85269 16.2548 3.64957 16.5356C3.44644 16.8164 3.33589 17.1535 3.33332 17.5V22.5C3.33242 22.8495 3.44135 23.1903 3.64472 23.4744C3.84809 23.7586 4.13562 23.9716 4.46665 24.0834L7.61665 25.1334L6.13332 28.1C5.98295 28.4106 5.93266 28.7601 5.98938 29.1004C6.0461 29.4407 6.20704 29.7551 6.44999 30L9.99999 33.55C10.2463 33.7966 10.5636 33.9597 10.9074 34.0165C11.2512 34.0733 11.6042 34.0209 11.9167 33.8667L14.8833 32.3834L15.9333 35.5334C16.0451 35.8644 16.2581 36.1519 16.5423 36.3553C16.8264 36.5587 17.1672 36.6676 17.5167 36.6667H22.5167C22.8661 36.6676 23.2069 36.5587 23.491 36.3553C23.7752 36.1519 23.9882 35.8644 24.1 35.5334L25.15 32.3834L28.1167 33.8667C28.4252 34.0133 28.7713 34.0615 29.1082 34.0049C29.445 33.9482 29.7563 33.7895 30 33.55L33.55 30C33.7965 29.7538 33.9596 29.4364 34.0164 29.0926C34.0732 28.7488 34.0209 28.3959 33.8667 28.0834L32.3833 25.1167L35.5333 24.0667C35.8617 23.9558 36.1473 23.7453 36.3504 23.4645C36.5535 23.1837 36.6641 22.8466 36.6667 22.5V17.5C36.6676 17.1506 36.5586 16.8098 36.3553 16.5257C36.1519 16.2415 35.8644 16.0285 35.5333 15.9167ZM33.3333 21.3L31.3333 21.9667C30.8734 22.1159 30.4515 22.3633 30.0967 22.6919C29.742 23.0204 29.463 23.4222 29.2791 23.8693C29.0952 24.3165 29.0107 24.7983 29.0316 25.2813C29.0525 25.7644 29.1782 26.2371 29.4 26.6667L30.35 28.5667L28.5167 30.4L26.6667 29.4C26.2392 29.1871 25.7711 29.0685 25.2938 29.0522C24.8166 29.0359 24.3414 29.1224 23.9005 29.3057C23.4596 29.489 23.0632 29.7649 22.7382 30.1148C22.4132 30.4646 22.1671 30.8802 22.0167 31.3334L21.35 33.3334H18.7L18.0333 31.3334C17.8841 30.8735 17.6367 30.4515 17.3082 30.0968C16.9796 29.7421 16.5778 29.4631 16.1307 29.2791C15.6835 29.0952 15.2017 29.0108 14.7187 29.0316C14.2356 29.0525 13.7629 29.1782 13.3333 29.4L11.4333 30.35L9.59999 28.5167L10.6 26.6667C10.8218 26.2371 10.9475 25.7644 10.9684 25.2813C10.9893 24.7983 10.9048 24.3165 10.7209 23.8693C10.537 23.4222 10.2579 23.0204 9.90323 22.6919C9.54851 22.3633 9.12656 22.1159 8.66665 21.9667L6.66665 21.3V18.7L8.66665 18.0334C9.12656 17.8842 9.54851 17.6368 9.90323 17.3082C10.2579 16.9797 10.537 16.5779 10.7209 16.1307C10.9048 15.6836 10.9893 15.2018 10.9684 14.7188C10.9475 14.2357 10.8218 13.763 10.6 13.3334L9.64999 11.4834L11.4833 9.65005L13.3333 10.6C13.7629 10.8219 14.2356 10.9476 14.7187 10.9685C15.2017 10.9893 15.6835 10.9049 16.1307 10.7209C16.5778 10.537 16.9796 10.258 17.3082 9.90329C17.6367 9.54857 17.8841 9.12662 18.0333 8.66671L18.7 6.66671H21.3L21.9667 8.66671C22.1158 9.12662 22.3633 9.54857 22.6918 9.90329C23.0204 10.258 23.4221 10.537 23.8693 10.7209C24.3164 10.9049 24.7982 10.9893 25.2813 10.9685C25.7643 10.9476 26.237 10.8219 26.6667 10.6L28.5667 9.65005L30.4 11.4834L29.4 13.3334C29.187 13.7608 29.0684 14.229 29.0521 14.7062C29.0359 15.1834 29.1223 15.6586 29.3056 16.0995C29.489 16.5404 29.7649 16.9368 30.1147 17.2618C30.4645 17.5869 30.8801 17.8329 31.3333 17.9834L33.3333 18.65V21.3ZM20 13.3334C18.6814 13.3334 17.3925 13.7244 16.2962 14.4569C15.1999 15.1895 14.3454 16.2306 13.8408 17.4488C13.3362 18.667 13.2042 20.0074 13.4614 21.3006C13.7187 22.5939 14.3536 23.7817 15.2859 24.7141C16.2183 25.6464 17.4062 26.2814 18.6994 26.5386C19.9926 26.7959 21.333 26.6638 22.5512 26.1592C23.7694 25.6547 24.8106 24.8002 25.5431 23.7038C26.2757 22.6075 26.6667 21.3186 26.6667 20C26.6667 18.2319 25.9643 16.5362 24.714 15.286C23.4638 14.0358 21.7681 13.3334 20 13.3334V13.3334ZM20 23.3334C19.3407 23.3334 18.6962 23.1379 18.1481 22.7716C17.5999 22.4053 17.1727 21.8847 16.9204 21.2757C16.6681 20.6666 16.6021 19.9963 16.7307 19.3497C16.8593 18.7031 17.1768 18.1092 17.643 17.643C18.1091 17.1768 18.7031 16.8594 19.3497 16.7308C19.9963 16.6021 20.6665 16.6682 21.2756 16.9204C21.8847 17.1727 22.4053 17.6 22.7716 18.1481C23.1378 18.6963 23.3333 19.3408 23.3333 20C23.3333 20.8841 22.9821 21.7319 22.357 22.3571C21.7319 22.9822 20.884 23.3334 20 23.3334Z" fill="white"/>
</svg>
