<svg width="40" height="40" viewBox="0 0 40 40" fill="none" xmlns="http://www.w3.org/2000/svg">
<path d="M11.6667 26.6667C12.3297 26.6667 12.9656 26.4033 13.4344 25.9345C13.9033 25.4656 14.1667 24.8297 14.1667 24.1667C14.1748 24.0836 14.1748 23.9998 14.1667 23.9167L18.8167 19.2667H19.2H19.5833L22.2667 21.95C22.2667 21.95 22.2667 22.0334 22.2667 22.0834C22.2667 22.7464 22.5301 23.3823 22.9989 23.8511C23.4677 24.32 24.1036 24.5834 24.7667 24.5834C25.4297 24.5834 26.0656 24.32 26.5344 23.8511C27.0033 23.3823 27.2667 22.7464 27.2667 22.0834V21.95L33.3333 15.8334C33.8278 15.8334 34.3111 15.6868 34.7223 15.412C35.1334 15.1373 35.4538 14.7469 35.643 14.2901C35.8322 13.8333 35.8818 13.3306 35.7853 12.8456C35.6888 12.3607 35.4507 11.9152 35.1011 11.5656C34.7515 11.216 34.306 10.9779 33.8211 10.8814C33.3361 10.7849 32.8334 10.8345 32.3766 11.0237C31.9198 11.2129 31.5294 11.5333 31.2547 11.9444C30.98 12.3556 30.8333 12.8389 30.8333 13.3334C30.8252 13.4165 30.8252 13.5002 30.8333 13.5834L24.8167 19.6H24.55L21.6667 16.6667C21.6667 16.0037 21.4033 15.3678 20.9344 14.8989C20.4656 14.4301 19.8297 14.1667 19.1667 14.1667C18.5036 14.1667 17.8677 14.4301 17.3989 14.8989C16.9301 15.3678 16.6667 16.0037 16.6667 16.6667L11.6667 21.6667C11.0036 21.6667 10.3677 21.9301 9.8989 22.3989C9.43006 22.8678 9.16667 23.5037 9.16667 24.1667C9.16667 24.8297 9.43006 25.4656 9.8989 25.9345C10.3677 26.4033 11.0036 26.6667 11.6667 26.6667V26.6667ZM34.1667 33.3334H5.83333V5.00004C5.83333 4.55801 5.65774 4.13409 5.34518 3.82153C5.03262 3.50897 4.60869 3.33337 4.16667 3.33337C3.72464 3.33337 3.30072 3.50897 2.98816 3.82153C2.67559 4.13409 2.5 4.55801 2.5 5.00004V35C2.5 35.4421 2.67559 35.866 2.98816 36.1786C3.30072 36.4911 3.72464 36.6667 4.16667 36.6667H34.1667C34.6087 36.6667 35.0326 36.4911 35.3452 36.1786C35.6577 35.866 35.8333 35.4421 35.8333 35C35.8333 34.558 35.6577 34.1341 35.3452 33.8215C35.0326 33.509 34.6087 33.3334 34.1667 33.3334Z" fill="white"/>
</svg>
