<svg width="35" height="35" viewBox="0 0 35 35" fill="none" xmlns="http://www.w3.org/2000/svg">
<path d="M22.9104 18.5355C24.3402 17.4106 25.3837 15.8681 25.896 14.1225C26.4082 12.3769 26.3636 10.515 25.7684 8.79593C25.1732 7.07685 24.057 5.58603 22.5751 4.53087C21.0932 3.47571 19.3192 2.90869 17.5 2.90869C15.6808 2.90869 13.9068 3.47571 12.4249 4.53087C10.943 5.58603 9.82676 7.07685 9.23156 8.79593C8.63637 10.515 8.59179 12.3769 9.10403 14.1225C9.61627 15.8681 10.6598 17.4106 12.0896 18.5355C9.6397 19.517 7.50209 21.1449 5.90464 23.2458C4.30719 25.3466 3.30978 27.8415 3.01875 30.4646C2.99769 30.6561 3.01455 30.8499 3.06837 31.0349C3.1222 31.2199 3.21193 31.3925 3.33246 31.5428C3.57586 31.8464 3.9299 32.0408 4.31667 32.0834C4.70344 32.1259 5.09128 32.0131 5.39485 31.7697C5.69843 31.5263 5.89287 31.1722 5.93542 30.7855C6.25565 27.9347 7.61496 25.3018 9.75366 23.3899C11.8923 21.478 14.6605 20.4211 17.5292 20.4211C20.3979 20.4211 23.166 21.478 25.3047 23.3899C27.4434 25.3018 28.8027 27.9347 29.1229 30.7855C29.1626 31.1438 29.3336 31.4747 29.6029 31.7144C29.8722 31.9541 30.2207 32.0856 30.5812 32.0834H30.7417C31.1239 32.0394 31.4734 31.8461 31.7137 31.5456C31.9541 31.2451 32.066 30.8618 32.025 30.4792C31.7326 27.8487 30.7298 25.3473 29.1242 23.2433C27.5185 21.1392 25.3705 19.5118 22.9104 18.5355V18.5355ZM17.5 17.5C16.3463 17.5 15.2185 17.1579 14.2592 16.5169C13.2999 15.876 12.5522 14.9649 12.1107 13.899C11.6692 12.8331 11.5537 11.6602 11.7788 10.5287C12.0038 9.39712 12.5594 8.35772 13.3752 7.54192C14.191 6.72611 15.2304 6.17054 16.362 5.94546C17.4935 5.72038 18.6664 5.8359 19.7323 6.27741C20.7982 6.71892 21.7093 7.46659 22.3502 8.42588C22.9912 9.38517 23.3333 10.513 23.3333 11.6667C23.3333 13.2138 22.7188 14.6975 21.6248 15.7915C20.5308 16.8855 19.0471 17.5 17.5 17.5Z" fill="#234257"/>
</svg>
