<svg width="40" height="40" viewBox="0 0 40 40" fill="none" xmlns="http://www.w3.org/2000/svg">
<path d="M28.3334 3.33325H8.33335C7.89133 3.33325 7.4674 3.50885 7.15484 3.82141C6.84228 4.13397 6.66669 4.55789 6.66669 4.99992V31.6666C6.66669 32.1086 6.84228 32.5325 7.15484 32.8451C7.4674 33.1577 7.89133 33.3333 8.33335 33.3333H10V34.9999C10 35.4419 10.1756 35.8659 10.4882 36.1784C10.8007 36.491 11.2247 36.6666 11.6667 36.6666C12.1087 36.6666 12.5326 36.491 12.8452 36.1784C13.1578 35.8659 13.3334 35.4419 13.3334 34.9999V33.3333H28.3334C29.6594 33.3333 30.9312 32.8065 31.8689 31.8688C32.8066 30.9311 33.3334 29.6593 33.3334 28.3333V8.33325C33.3334 7.00717 32.8066 5.7354 31.8689 4.79772C30.9312 3.86004 29.6594 3.33325 28.3334 3.33325ZM23.3334 29.9999H10V6.66659H23.3334V29.9999ZM30 28.3333C30 28.7753 29.8244 29.1992 29.5119 29.5118C29.1993 29.8243 28.7754 29.9999 28.3334 29.9999H26.6667V6.66659H28.3334C28.7754 6.66659 29.1993 6.84218 29.5119 7.15474C29.8244 7.4673 30 7.89122 30 8.33325V28.3333Z" fill="white"/>
</svg>
