<svg width="35" height="35" viewBox="0 0 35 35" fill="none" xmlns="http://www.w3.org/2000/svg">
<path d="M17.5 18.9584C17.1132 18.9584 16.7423 19.112 16.4688 19.3855C16.1953 19.659 16.0416 20.0299 16.0416 20.4167V24.7917C16.0416 25.1785 16.1953 25.5494 16.4688 25.8229C16.7423 26.0964 17.1132 26.25 17.5 26.25C17.8868 26.25 18.2577 26.0964 18.5312 25.8229C18.8047 25.5494 18.9583 25.1785 18.9583 24.7917V20.4167C18.9583 20.0299 18.8047 19.659 18.5312 19.3855C18.2577 19.112 17.8868 18.9584 17.5 18.9584ZM24.7916 13.125V10.2084C24.7916 8.27448 24.0234 6.41982 22.656 5.05237C21.2885 3.68491 19.4338 2.91669 17.5 2.91669C15.5661 2.91669 13.7114 3.68491 12.344 5.05237C10.9765 6.41982 10.2083 8.27448 10.2083 10.2084V13.125C9.04799 13.125 7.93519 13.586 7.11472 14.4064C6.29425 15.2269 5.83331 16.3397 5.83331 17.5V27.7084C5.83331 28.8687 6.29425 29.9815 7.11472 30.8019C7.93519 31.6224 9.04799 32.0834 10.2083 32.0834H24.7916C25.952 32.0834 27.0648 31.6224 27.8852 30.8019C28.7057 29.9815 29.1666 28.8687 29.1666 27.7084V17.5C29.1666 16.3397 28.7057 15.2269 27.8852 14.4064C27.0648 13.586 25.952 13.125 24.7916 13.125ZM13.125 10.2084C13.125 9.04803 13.5859 7.93523 14.4064 7.11476C15.2269 6.29429 16.3397 5.83335 17.5 5.83335C18.6603 5.83335 19.7731 6.29429 20.5936 7.11476C21.414 7.93523 21.875 9.04803 21.875 10.2084V13.125H13.125V10.2084ZM26.25 27.7084C26.25 28.0951 26.0963 28.4661 25.8228 28.7396C25.5494 29.013 25.1784 29.1667 24.7916 29.1667H10.2083C9.82154 29.1667 9.45061 29.013 9.17712 28.7396C8.90363 28.4661 8.74998 28.0951 8.74998 27.7084V17.5C8.74998 17.1132 8.90363 16.7423 9.17712 16.4688C9.45061 16.1953 9.82154 16.0417 10.2083 16.0417H24.7916C25.1784 16.0417 25.5494 16.1953 25.8228 16.4688C26.0963 16.7423 26.25 17.1132 26.25 17.5V27.7084Z" fill="#234257"/>
</svg>
