<svg width="40" height="40" viewBox="0 0 40 40" fill="none" xmlns="http://www.w3.org/2000/svg">
<path d="M20 3.33325C16.7675 3.33939 13.6065 4.28544 10.902 6.05615C8.19763 7.82686 6.06649 10.3458 4.76824 13.3062C3.46998 16.2666 3.06063 19.5406 3.59004 22.7295C4.11946 25.9184 5.5648 28.8845 7.75 31.2666V31.2666C9.31071 32.9583 11.2049 34.3085 13.3132 35.2319C15.4216 36.1554 17.6983 36.6321 20 36.6321C22.3017 36.6321 24.5784 36.1554 26.6868 35.2319C28.7951 34.3085 30.6893 32.9583 32.25 31.2666V31.2666C34.4352 28.8845 35.8805 25.9184 36.41 22.7295C36.9394 19.5406 36.53 16.2666 35.2318 13.3062C33.9335 10.3458 31.8024 7.82686 29.098 6.05615C26.3935 4.28544 23.2325 3.33939 20 3.33325V3.33325ZM20 33.3333C16.5474 33.328 13.2315 31.9837 10.75 29.5833C11.5034 27.7491 12.7851 26.1804 14.4321 25.0764C16.0791 23.9724 18.0172 23.3829 20 23.3829C21.9828 23.3829 23.9209 23.9724 25.5679 25.0764C27.2149 26.1804 28.4966 27.7491 29.25 29.5833C26.7685 31.9837 23.4526 33.328 20 33.3333ZM16.6667 16.6666C16.6667 16.0073 16.8622 15.3628 17.2284 14.8147C17.5947 14.2665 18.1153 13.8393 18.7244 13.587C19.3335 13.3347 20.0037 13.2687 20.6503 13.3973C21.2969 13.5259 21.8908 13.8434 22.357 14.3096C22.8232 14.7757 23.1407 15.3697 23.2693 16.0163C23.3979 16.6629 23.3319 17.3331 23.0796 17.9422C22.8273 18.5513 22.4001 19.0719 21.8519 19.4382C21.3037 19.8044 20.6593 19.9999 20 19.9999C19.1159 19.9999 18.2681 19.6487 17.643 19.0236C17.0179 18.3985 16.6667 17.5506 16.6667 16.6666ZM31.5167 26.6666C30.0276 24.1195 27.7357 22.1383 25 21.0333C25.8486 20.071 26.4015 18.8843 26.5925 17.6156C26.7834 16.3469 26.6041 15.0501 26.0763 13.8807C25.5484 12.7114 24.6943 11.7192 23.6165 11.0232C22.5387 10.3272 21.283 9.957 20 9.957C18.717 9.957 17.4613 10.3272 16.3835 11.0232C15.3057 11.7192 14.4516 12.7114 13.9237 13.8807C13.3959 15.0501 13.2166 16.3469 13.4075 17.6156C13.5985 18.8843 14.1514 20.071 15 21.0333C12.2643 22.1383 9.97245 24.1195 8.48333 26.6666C7.29657 24.6451 6.66953 22.344 6.66667 19.9999C6.66667 16.4637 8.07143 13.0723 10.5719 10.5718C13.0724 8.07134 16.4638 6.66659 20 6.66659C23.5362 6.66659 26.9276 8.07134 29.4281 10.5718C31.9286 13.0723 33.3333 16.4637 33.3333 19.9999C33.3305 22.344 32.7034 24.6451 31.5167 26.6666V26.6666Z" fill="white"/>
</svg>
