<svg width="35" height="35" viewBox="0 0 35 35" fill="none" xmlns="http://www.w3.org/2000/svg">
<path d="M27.7083 5.83337H7.29166C6.13134 5.83337 5.01854 6.29431 4.19807 7.11478C3.3776 7.93525 2.91666 9.04805 2.91666 10.2084V24.7917C2.91666 25.952 3.3776 27.0648 4.19807 27.8853C5.01854 28.7058 6.13134 29.1667 7.29166 29.1667H27.7083C28.8687 29.1667 29.9815 28.7058 30.8019 27.8853C31.6224 27.0648 32.0833 25.952 32.0833 24.7917V10.2084C32.0833 9.04805 31.6224 7.93525 30.8019 7.11478C29.9815 6.29431 28.8687 5.83337 27.7083 5.83337V5.83337ZM7.29166 8.75004H27.7083C28.0951 8.75004 28.466 8.90369 28.7395 9.17718C29.013 9.45067 29.1667 9.8216 29.1667 10.2084L17.5 17.325L5.83333 10.2084C5.83333 9.8216 5.98698 9.45067 6.26047 9.17718C6.53396 8.90369 6.90489 8.75004 7.29166 8.75004V8.75004ZM29.1667 24.7917C29.1667 25.1785 29.013 25.5494 28.7395 25.8229C28.466 26.0964 28.0951 26.25 27.7083 26.25H7.29166C6.90489 26.25 6.53396 26.0964 6.26047 25.8229C5.98698 25.5494 5.83333 25.1785 5.83333 24.7917V13.5334L16.7417 20.198C16.9634 20.326 17.2148 20.3933 17.4708 20.3933C17.7268 20.3933 17.9783 20.326 18.2 20.198L29.1667 13.5334V24.7917Z" fill="#234257"/>
</svg>
