<svg width="35" height="35" viewBox="0 0 35 35" fill="none" xmlns="http://www.w3.org/2000/svg">
<path d="M17.5 18.9583C17.1132 18.9583 16.7423 19.1119 16.4688 19.3854C16.1953 19.6589 16.0417 20.0299 16.0417 20.4166V24.7916C16.0417 25.1784 16.1953 25.5493 16.4688 25.8228C16.7423 26.0963 17.1132 26.25 17.5 26.25C17.8868 26.25 18.2577 26.0963 18.5312 25.8228C18.8047 25.5493 18.9583 25.1784 18.9583 24.7916V20.4166C18.9583 20.0299 18.8047 19.6589 18.5312 19.3854C18.2577 19.1119 17.8868 18.9583 17.5 18.9583ZM24.7917 13.125V10.2083C24.7917 8.27442 24.0234 6.41976 22.656 5.05231C21.2885 3.68485 19.4339 2.91663 17.5 2.91663C15.5661 2.91663 13.7115 3.68485 12.344 5.05231C10.9766 6.41976 10.2083 8.27442 10.2083 10.2083V13.125C9.04801 13.125 7.93522 13.5859 7.11474 14.4064C6.29427 15.2268 5.83334 16.3396 5.83334 17.5V27.7083C5.83334 28.8686 6.29427 29.9814 7.11474 30.8019C7.93522 31.6224 9.04801 32.0833 10.2083 32.0833H24.7917C25.952 32.0833 27.0648 31.6224 27.8853 30.8019C28.7057 29.9814 29.1667 28.8686 29.1667 27.7083V17.5C29.1667 16.3396 28.7057 15.2268 27.8853 14.4064C27.0648 13.5859 25.952 13.125 24.7917 13.125ZM13.125 10.2083C13.125 9.04797 13.5859 7.93517 14.4064 7.1147C15.2269 6.29423 16.3397 5.83329 17.5 5.83329C18.6603 5.83329 19.7731 6.29423 20.5936 7.1147C21.4141 7.93517 21.875 9.04797 21.875 10.2083V13.125H13.125V10.2083ZM26.25 27.7083C26.25 28.0951 26.0964 28.466 25.8229 28.7395C25.5494 29.013 25.1784 29.1666 24.7917 29.1666H10.2083C9.82156 29.1666 9.45063 29.013 9.17714 28.7395C8.90365 28.466 8.75 28.0951 8.75 27.7083V17.5C8.75 17.1132 8.90365 16.7423 9.17714 16.4688C9.45063 16.1953 9.82156 16.0416 10.2083 16.0416H24.7917C25.1784 16.0416 25.5494 16.1953 25.8229 16.4688C26.0964 16.7423 26.25 17.1132 26.25 17.5V27.7083Z" fill="#234257"/>
</svg>
