<svg width="40" height="40" viewBox="0 0 40 40" fill="none" xmlns="http://www.w3.org/2000/svg">
<path d="M4.99999 13.3333H35C35.442 13.3333 35.8659 13.1577 36.1785 12.8452C36.4911 12.5326 36.6667 12.1087 36.6667 11.6667C36.6667 11.2246 36.4911 10.8007 36.1785 10.4882C35.8659 10.1756 35.442 10 35 10H4.99999C4.55797 10 4.13404 10.1756 3.82148 10.4882C3.50892 10.8007 3.33333 11.2246 3.33333 11.6667C3.33333 12.1087 3.50892 12.5326 3.82148 12.8452C4.13404 13.1577 4.55797 13.3333 4.99999 13.3333V13.3333ZM35 26.6667H4.99999C4.55797 26.6667 4.13404 26.8423 3.82148 27.1548C3.50892 27.4674 3.33333 27.8913 3.33333 28.3333C3.33333 28.7754 3.50892 29.1993 3.82148 29.5118C4.13404 29.8244 4.55797 30 4.99999 30H35C35.442 30 35.8659 29.8244 36.1785 29.5118C36.4911 29.1993 36.6667 28.7754 36.6667 28.3333C36.6667 27.8913 36.4911 27.4674 36.1785 27.1548C35.8659 26.8423 35.442 26.6667 35 26.6667ZM35 18.3333H4.99999C4.55797 18.3333 4.13404 18.5089 3.82148 18.8215C3.50892 19.134 3.33333 19.558 3.33333 20C3.33333 20.442 3.50892 20.866 3.82148 21.1785C4.13404 21.4911 4.55797 21.6667 4.99999 21.6667H35C35.442 21.6667 35.8659 21.4911 36.1785 21.1785C36.4911 20.866 36.6667 20.442 36.6667 20C36.6667 19.558 36.4911 19.134 36.1785 18.8215C35.8659 18.5089 35.442 18.3333 35 18.3333Z" fill="white"/>
</svg>
